<?xml version="1.0" encoding="UTF-8" standalone="no"?>
<!-- Created with Inkscape (http://www.inkscape.org/) -->

<svg
   xmlns:dc="http://purl.org/dc/elements/1.1/"
   xmlns:cc="http://creativecommons.org/ns#"
   xmlns:rdf="http://www.w3.org/1999/02/22-rdf-syntax-ns#"
   xmlns:svg="http://www.w3.org/2000/svg"
   xmlns="http://www.w3.org/2000/svg"
   xmlns:sodipodi="http://sodipodi.sourceforge.net/DTD/sodipodi-0.dtd"
   xmlns:inkscape="http://www.inkscape.org/namespaces/inkscape"
   width="200mm"
   height="200mm"
   viewBox="0 0 200 200"
   version="1.1"
   id="svg8"
   inkscape:version="0.92.4 5da689c313, 2019-01-14"
   sodipodi:docname="logo.svg">
  <defs
     id="defs2">
    <inkscape:perspective
       sodipodi:type="inkscape:persp3d"
       inkscape:vp_x="1.5726134 : 29.65703 : 1"
       inkscape:vp_y="0 : 921.54442 : 0"
       inkscape:vp_z="185.8815 : 29.65703 : 1"
       inkscape:persp3d-origin="93.727053 : -1.061119 : 1"
       id="perspective3713" />
  </defs>
  <sodipodi:namedview
     id="base"
     pagecolor="#ffffff"
     bordercolor="#666666"
     borderopacity="1.0"
     inkscape:pageopacity="0.0"
     inkscape:pageshadow="2"
     inkscape:zoom="0.7"
     inkscape:cx="142.52531"
     inkscape:cy="373.77685"
     inkscape:document-units="mm"
     inkscape:current-layer="layer1"
     showgrid="false"
     inkscape:window-width="2560"
     inkscape:window-height="1416"
     inkscape:window-x="2560"
     inkscape:window-y="0"
     inkscape:window-maximized="1" />
  <metadata
     id="metadata5">
    <rdf:RDF>
      <cc:Work
         rdf:about="">
        <dc:format>image/svg+xml</dc:format>
        <dc:type
           rdf:resource="http://purl.org/dc/dcmitype/StillImage" />
        <dc:title />
      </cc:Work>
    </rdf:RDF>
  </metadata>
  <g
     inkscape:label="Layer 1"
     inkscape:groupmode="layer"
     id="layer1"
     transform="translate(0,-97)">
    <g
       id="g86"
       transform="matrix(0.92154442,0,0,0.92154442,10.28066,14.392745)">
      <g
         inkscape:corner7="-0.33858267 : 0.0234416 : 0.25 : 1"
         inkscape:corner0="0.70688343 : 0.14006435 : 0 : 1"
         inkscape:perspectiveID="#perspective3713"
         id="g3715"
         sodipodi:type="inkscape:box3d">
        <path
           points="49.136903,280.28032 67.203091,279.53995 67.203091,219.94379 49.136903,211.95535 "
           d="m 49.136903,211.95535 v 68.32497 l 18.066188,-0.74037 v -59.59616 z"
           inkscape:box3dsidetype="6"
           style="fill:#353564;fill-rule:evenodd;stroke:none;stroke-linejoin:round"
           id="path3717"
           sodipodi:type="inkscape:box3dside" />
        <path
           points="141.74107,289.44048 155.12943,285.33825 67.203091,279.53995 49.136903,280.28032 "
           d="m 49.136903,280.28032 92.604167,9.16016 13.38836,-4.10223 -87.926339,-5.7983 z"
           inkscape:box3dsidetype="13"
           style="fill:#afafde;fill-rule:evenodd;stroke:none;stroke-linejoin:round"
           id="path3725"
           sodipodi:type="inkscape:box3dside" />
        <path
           points="155.12943,157.38067 155.12943,285.33825 67.203091,279.53995 67.203091,219.94379 "
           d="m 67.203091,219.94379 87.926339,-62.56312 v 127.95758 l -87.926339,-5.7983 z"
           inkscape:box3dsidetype="11"
           style="fill:#e9e9ff;fill-rule:evenodd;stroke:none;stroke-linejoin:round"
           id="path3727"
           sodipodi:type="inkscape:box3dside" />
        <path
           points="141.74107,113.11798 155.12943,157.38067 67.203091,219.94379 49.136903,211.95535 "
           d="m 49.136903,211.95535 92.604167,-98.83737 13.38836,44.26269 -87.926339,62.56312 z"
           inkscape:box3dsidetype="5"
           style="fill:#4d4d9f;fill-rule:evenodd;stroke:none;stroke-linejoin:round"
           id="path3719"
           sodipodi:type="inkscape:box3dside" />
        <path
           points="141.74107,289.44048 155.12943,285.33825 155.12943,157.38067 141.74107,113.11798 "
           d="m 141.74107,113.11798 v 176.3225 l 13.38836,-4.10223 V 157.38067 Z"
           inkscape:box3dsidetype="14"
           style="fill:#d7d7ff;fill-rule:evenodd;stroke:none;stroke-linejoin:round"
           id="path3723"
           sodipodi:type="inkscape:box3dside" />
        <path
           points="141.74107,113.11798 141.74107,289.44048 49.136903,280.28032 49.136903,211.95535 "
           d="m 49.136903,211.95535 92.604167,-98.83737 v 176.3225 l -92.604167,-9.16016 z"
           inkscape:box3dsidetype="3"
           style="fill:#8686bf;fill-rule:evenodd;stroke:none;stroke-linejoin:round"
           id="path3721"
           sodipodi:type="inkscape:box3dside" />
      </g>
      <g
         inkscape:corner7="0.11631617 : 0.058832519 : 0.25 : 1"
         inkscape:corner0="0.18110237 : 0.22638381 : 0 : 1"
         inkscape:perspectiveID="#perspective3713"
         id="g3731"
         sodipodi:type="inkscape:box3d">
        <path
           points="75.21726,252.8958 95.3649,256.66725 95.3649,139.58877 75.21726,111.03571 "
           d="M 75.21726,111.03571 V 252.8958 l 20.14764,3.77145 V 139.58877 Z"
           inkscape:box3dsidetype="6"
           style="fill:#353564;fill-rule:evenodd;stroke:none;stroke-linejoin:round"
           id="path3733"
           sodipodi:type="inkscape:box3dside" />
        <path
           points="100.33485,133.19243 100.33485,255.82239 95.3649,256.66725 95.3649,139.58877 "
           d="m 95.3649,139.58877 4.96995,-6.39634 v 122.62996 l -4.96995,0.84486 z"
           inkscape:box3dsidetype="11"
           style="fill:#e9e9ff;fill-rule:evenodd;stroke:none;stroke-linejoin:round"
           id="path3743"
           sodipodi:type="inkscape:box3dside" />
        <path
           points="80.13095,101.54981 100.33485,133.19243 95.3649,139.58877 75.21726,111.03571 "
           d="m 75.21726,111.03571 4.91369,-9.4859 20.2039,31.64262 -4.96995,6.39634 z"
           inkscape:box3dsidetype="5"
           style="fill:#4d4d9f;fill-rule:evenodd;stroke:none;stroke-linejoin:round"
           id="path3735"
           sodipodi:type="inkscape:box3dside" />
        <path
           points="80.13095,251.64285 100.33485,255.82239 95.3649,256.66725 75.21726,252.8958 "
           d="m 75.21726,252.8958 4.91369,-1.25295 20.2039,4.17954 -4.96995,0.84486 z"
           inkscape:box3dsidetype="13"
           style="fill:#afafde;fill-rule:evenodd;stroke:none;stroke-linejoin:round"
           id="path3741"
           sodipodi:type="inkscape:box3dside" />
        <path
           points="80.13095,251.64285 100.33485,255.82239 100.33485,133.19243 80.13095,101.54981 "
           d="m 80.13095,101.54981 v 150.09304 l 20.2039,4.17954 V 133.19243 Z"
           inkscape:box3dsidetype="14"
           style="fill:#d7d7ff;fill-rule:evenodd;stroke:none;stroke-linejoin:round"
           id="path3739"
           sodipodi:type="inkscape:box3dside" />
        <path
           points="80.13095,101.54981 80.13095,251.64285 75.21726,252.8958 75.21726,111.03571 "
           d="m 75.21726,111.03571 4.91369,-9.4859 v 150.09304 l -4.91369,1.25295 z"
           inkscape:box3dsidetype="3"
           style="fill:#8686bf;fill-rule:evenodd;stroke:none;stroke-linejoin:round"
           id="path3737"
           sodipodi:type="inkscape:box3dside" />
      </g>
    </g>
  </g>
</svg>
